Exact Audio Copy V0.99 prebeta 5 from 4. May 2009

EAC extraction logfile from 8. July 2009, 17:35

Onur Цzer / Watergate 01

Used drive  : PIONEER DVD RW  DVR-107D   Adapter: 1  ID: 0

Read mode               : Secure
Utilize accurate stream : Yes
Defeat audio cache      : Yes
Make use of C2 pointers : No

Read offset correction                      : 48
Overread into Lead-In and Lead-Out          : No
Fill up missing offset samples with silence : Yes
Delete leading and trailing silent blocks   : No
Null samples used in CRC calculations       : Yes
Used interface                              : Native Win32 interface for Win NT & 2000
Gap handling                                : Appended to previous track

Used output format              : User Defined Encoder
Selected bitrate                : 128 kBit/s
Quality                         : High
Add ID3 tag                     : No
Command line compressor         : C:Program FilesExact Audio CopyFlacflac.exe
Additional command line options : -V -8 -T "artist=%a" -T "title=%t" -T "album=%g" -T "date=%y" -T "tracknumber=%n" -T "genre=%m" %s


TOC of the extracted CD

     Track |   Start  |  Length  | Start sector | End sector 
    ---------------------------------------------------------
        1  |  0:00.00 |  7:40.25 |         0    |    34524   
        2  |  7:40.25 |  4:37.26 |     34525    |    55325   
        3  | 12:17.51 |  4:27.52 |     55326    |    75402   
        4  | 16:45.28 |  6:09.63 |     75403    |   103140   
        5  | 22:55.16 |  3:39.64 |    103141    |   119629   
        6  | 26:35.05 |  5:23.60 |    119630    |   143914   
        7  | 31:58.65 |  5:45.52 |    143915    |   169841   
        8  | 37:44.42 |  2:20.30 |    169842    |   180371   
        9  | 40:04.72 |  6:02.68 |    180372    |   207589   
       10  | 46:07.65 |  5:27.01 |    207590    |   232115   
       11  | 51:34.66 |  5:45.67 |    232116    |   258057   
       12  | 57:20.58 |  3:09.02 |    258058    |   272234   
       13  | 60:29.60 |  3:56.20 |    272235    |   289954   
       14  | 64:26.05 |  3:16.43 |    289955    |   304697   
       15  | 67:42.48 |  6:39.28 |    304698    |   334650   


Track  1

     Filename 01 - Dewalta - Salgaro.wav

     Pre-gap length  0:00:02.00

     Peak level 97.5 %
     Track quality 100.0 %
     Test CRC F35574C4
     Copy CRC F35574C4
     Track not present in AccurateRip database
     Copy OK

Track  2

     Filename 02 - Cabanne - Keep Going.wav

     Peak level 98.0 %
     Track quality 100.0 %
     Test CRC EFD1D184
     Copy CRC EFD1D184
     Track not present in AccurateRip database
     Copy OK

Track  3

     Filename 03 - Sammy Dee - Purple Hummer.wav

     Peak level 98.0 %
     Track quality 100.0 %
     Test CRC 7F16EF9C
     Copy CRC 7F16EF9C
     Track not present in AccurateRip database
     Copy OK

Track  4

     Filename 04 - Cassy - April.wav

     Peak level 97.2 %
     Track quality 100.0 %
     Test CRC ECE0A1E2
     Copy CRC ECE0A1E2
     Track not present in AccurateRip database
     Copy OK

Track  5

     Filename 05 - Jason Blackmore - Suspicion.wav

     Peak level 95.4 %
     Track quality 100.0 %
     Test CRC D32B484B
     Copy CRC D32B484B
     Track not present in AccurateRip database
     Copy OK

Track  6

     Filename 06 - Abonne - Bongospace (Ion Ludwig Remix).wav

     Peak level 98.0 %
     Track quality 100.0 %
     Test CRC 4D5B08D9
     Copy CRC 4D5B08D9
     Track not present in AccurateRip database
     Copy OK

Track  7

     Filename 07 - Jens Zimmerman - C30.wav

     Peak level 97.3 %
     Track quality 99.9 %
     Test CRC 4C317C4F
     Copy CRC 4C317C4F
     Track not present in AccurateRip database
     Copy OK

Track  8

     Filename 08 - Patrice Baumel - The Roar.wav

     Peak level 97.7 %
     Track quality 100.0 %
     Test CRC 18BE9D8B
     Copy CRC 18BE9D8B
     Track not present in AccurateRip database
     Copy OK

Track  9

     Filename 09 - Ralph Sliwinski - Pox Box (Johnny D Remix).wav

     Peak level 98.4 %
     Track quality 100.0 %
     Test CRC 86ECA5D8
     Copy CRC 86ECA5D8
     Track not present in AccurateRip database
     Copy OK

Track 10

     Filename 10 - Hector & Star - La Raza.wav

     Peak level 98.3 %
     Track quality 100.0 %
     Test CRC 435AD741
     Copy CRC 435AD741
     Track not present in AccurateRip database
     Copy OK

Track 11

     Filename 11 - William Kouam Djoko - Hard Loving.wav

     Peak level 97.6 %
     Track quality 100.0 %
     Test CRC F5062096
     Copy CRC F5062096
     Track not present in AccurateRip database
     Copy OK

Track 12

     Filename 12 - Onur Ozer - Terpsichorean Echoes (Harem Edit).wav

     Peak level 98.6 %
     Track quality 100.0 %
     Test CRC 693E9863
     Copy CRC 693E9863
     Track not present in AccurateRip database
     Copy OK

Track 13

     Filename 13 - Dinky ft. JOrge Gonzalez - Fade Me In.wav

     Peak level 98.3 %
     Track quality 100.0 %
     Test CRC 2875942A
     Copy CRC 2875942A
     Track not present in AccurateRip database
     Copy OK

Track 14

     Filename 14 - Onur Ozer - Sahara (Zimmermannґs Wustenmond Mix).wav

     Peak level 98.6 %
     Track quality 99.9 %
     Test CRC A0C01297
     Copy CRC A0C01297
     Track not present in AccurateRip database
     Copy OK

Track 15

     Filename 15 - Sensitiva - Mimosa.wav

     Peak level 98.1 %
     Track quality 100.0 %
     Test CRC D704DC97
     Copy CRC D704DC97
     Track not present in AccurateRip database
     Copy OK


None of the tracks are present in the AccurateRip database

No errors occurred

End of status report
